<svg width="36" height="37" viewBox="0 0 36 37" fill="none" xmlns="http://www.w3.org/2000/svg">
<path d="M10.35 31.3915C12.6 32.7629 15.3 33.5249 18 33.5249C26.25 33.5249 33 26.6675 33 18.2862C33 9.90499 26.25 3.04761 18 3.04761C9.75 3.04761 3 9.90499 3 18.2862C3 21.0292 3.75 23.6198 4.95 25.9056L3.66 30.9435C3.59345 31.2035 3.59577 31.4769 3.66675 31.7357C3.73772 31.9946 3.87481 32.2298 4.06412 32.4175C4.25343 32.6052 4.48823 32.7386 4.7447 32.8044C5.00117 32.8702 5.2702 32.8658 5.5245 32.7919L10.35 31.3915Z" stroke="#552E91" stroke-width="2.5" stroke-miterlimit="10" stroke-linecap="round" stroke-linejoin="round"/>
<path d="M24.75 22.6263C24.75 22.8732 24.696 23.1277 24.5805 23.3745C24.4626 23.6296 24.3079 23.8654 24.1215 24.074C23.79 24.4443 23.4255 24.711 23.0115 24.8831C22.6065 25.0553 22.167 25.1437 21.6945 25.1437C21.0045 25.1437 20.268 24.9792 19.4895 24.6439C18.6665 24.2814 17.8865 23.8254 17.1645 23.2846C16.3792 22.7019 15.6381 22.06 14.9475 21.3645C14.2642 20.6668 13.6339 19.9174 13.062 19.1229C12.5364 18.3958 12.0917 17.6119 11.736 16.7853C11.412 16.0005 11.25 15.2539 11.25 14.5422C11.25 14.0759 11.331 13.6309 11.493 13.2195C11.655 12.8004 11.913 12.4164 12.2715 12.0735C12.7035 11.6408 13.176 11.429 13.677 11.429C13.866 11.429 14.055 11.4701 14.2245 11.5524C14.4 11.6347 14.5545 11.7581 14.6775 11.9364L16.2465 14.1795C16.3665 14.3502 16.4565 14.5087 16.5165 14.6595C16.5765 14.8028 16.611 14.9476 16.611 15.0771C16.6091 15.2499 16.5597 15.4188 16.4685 15.5647C16.3643 15.7431 16.2372 15.9066 16.0905 16.0508L15.576 16.5933C15.5402 16.6289 15.5121 16.6717 15.4935 16.7189C15.4749 16.7661 15.4662 16.8168 15.468 16.8676C15.468 16.921 15.4755 16.9697 15.489 17.0246C15.5085 17.0794 15.5295 17.1206 15.543 17.1617C15.663 17.3888 15.873 17.6829 16.1715 18.0395C16.476 18.3961 16.8 18.7603 17.151 19.1229C17.517 19.4871 17.868 19.8224 18.2265 20.1317C18.5775 20.4319 18.8685 20.6377 19.098 20.7611L19.221 20.8175C19.2749 20.837 19.3318 20.8463 19.389 20.8449C19.4407 20.846 19.4922 20.8362 19.5399 20.816C19.5877 20.7958 19.6308 20.7657 19.6665 20.7276L20.1795 20.2125C20.349 20.0418 20.511 19.9123 20.667 19.8285C20.8105 19.7356 20.9769 19.686 21.147 19.6852C21.289 19.6874 21.4292 19.7179 21.5595 19.7752C21.708 19.8361 21.864 19.9245 22.032 20.0418L24.27 21.6541C24.4322 21.7613 24.5611 21.9129 24.642 22.0914C24.7121 22.2608 24.7488 22.4425 24.75 22.6263V22.6263Z" stroke="#552E91" stroke-width="2.5" stroke-miterlimit="10"/>
</svg>
